<?xml version="1.0" encoding="UTF-8" standalone="no"?>
<svg version="1.1" id="svg1" width="1280" height="1280" viewBox="-640 -640 1280 1280" xmlns="http://www.w3.org/2000/svg">
   <defs id="defs1">
      <style>
         .outlined {
            stroke: black;
            stroke-width: 2px;
         }

         .dull {
            fill: white;
         }

         .bright {
            fill: gold;
         }
      </style>

      <g id="one">
         <polygon points="40,55 20,55 20,-55 40,-55 "   class="outlined bright" />
         <polygon points="-4,-11 16,-11 40,-55 20,-55 " class="outlined bright" />
      </g>

      <g id="zero">
         <polygon points="20,55 40,35 40,-35 20,-35 "     class="outlined bright" />
         <polygon points="40,-35 20,-55 -20,-55 -20,-35 " class="outlined bright" />
         <polygon points="-20,-55 -40,-35 -40,35 -20,35 " class="outlined bright" />
         <polygon points="-40,35 -20,55 20,55 20,35 "     class="outlined bright" />
      </g>

      <g id="cross">
         <polygon points="40,55 20,55 -40,-55 -20,-55 " class="outlined bright" />
         <polygon points="-40,55 -20,55 40,-55 20,-55 " class="outlined bright" />
      </g>

      <polygon id="big-tall-rect" points="0,0 60,0 240,-330 180,-330 " />
      <polygon id="big-long-rect" points="0,0 300,0 330,-55 30,-55   " />

      <g id="foot">
         <polygon points="15,0 -15,0 -87,132 -57,132 " class="outlined dull" />
         <polygon points="15,0 -15,0 -15,132 15,132 "  class="outlined dull" />
         <polygon points="15,0 -15,0 57,132 87,132 "   class="outlined dull" />
      </g>

      <polygon id="fasc" points="-400,-10 400,-10 400,10 -400,10 " class="outlined dull" />
   </defs>

   <g id="eagle" transform="translate(0 -165)">
      <g id="head" transform="translate(0 0)">
         <polygon points="-180,0 180,0 150,-55 -150,-55 " class="outlined dull"  transform="translate(0  -55)" />
         <polygon points="-150,0 150,0 120,-55 -120,-55 " class="outlined dull"  transform="translate(0 -110)" />
         <polygon points="-120,0 120,0 120,-55 -150,-55 " class="outlined dull"  transform="translate(0 -165)" />
         <polygon points="-240,0 120,0  90,-55 -210,-55 " class="outlined dull"  transform="translate(0 -220)" />
         <polygon points="-150,0  90,0  120,-55 -120,-55 " class="outlined dull" transform="translate(0 -275)" />
      </g>

      <g id="wings" transform="translate(0 330)">
         <g id="U" transform="translate(-90 0)">
            <use href="#big-tall-rect" class="outlined bright" transform="translate(   0 0) scale(-1 1)" />
            <use href="#big-tall-rect" class="outlined dull"   transform="translate( -60 0) scale(-1 1)" />
            <use href="#big-tall-rect" class="outlined dull"   transform="translate(-120 0) scale(-1 1)" />
            <use href="#big-tall-rect" class="outlined dull"   transform="translate(-180 0) scale(-1 1)" />
            <use href="#big-tall-rect" class="outlined bright" transform="translate(-240 0) scale(-1 1)" />
            <use href="#big-long-rect" class="outlined bright" transform="translate(   0 0) scale(-1 1)" />
         </g>

         <g id="T">
            <polygon points=" -30,0  30,0  60,-55  -60,-55 "  class="outlined dull"   transform="translate(0    0)" />
            <polygon points=" -60,0  60,0  90,-55  -90,-55 "  class="outlined dull"   transform="translate(0  -55)" />
            <polygon points=" -90,0  90,0 120,-55 -120,-55 "  class="outlined dull"   transform="translate(0 -110)" />
            <polygon points="-120,0 120,0 150,-55 -150,-55 "  class="outlined dull"   transform="translate(0 -165)" />
            <polygon points="-150,0 150,0 180,-55 -180,-55 "  class="outlined dull"   transform="translate(0 -220)" />
            <polygon points=" -30,0  30,0  30,-330 -30,-330 " class="outlined bright" transform="translate(0    0)" />
            <polygon points="-180,0 180,0 210,-55 -210,-55 "  class="outlined bright" transform="translate(0 -275)" />
         </g>

         <g id="F" transform="translate(90 0)">
            <use href="#big-long-rect" class="outlined bright" transform="translate(150 -275)" />
            <use href="#big-long-rect" class="outlined dull"   transform="translate(120 -220)" />
            <use href="#big-long-rect" class="outlined bright" transform="translate( 90 -165)" />
            <use href="#big-long-rect" class="outlined dull"   transform="translate( 60 -110)" />
            <use href="#big-long-rect" class="outlined dull"   transform="translate( 30  -55)" />
            <use href="#big-long-rect" class="outlined dull"   transform="translate(  0    0)" />
            <use href="#big-tall-rect" class="outlined bright" transform="translate(  0    0)" />
         </g>
      </g>
   </g>

   <g id="fasces" transform="translate(0 440)">
      <polygon id="big-stick" points="-500,-10 420,-10 420,10 -500,10 "         class="outlined dull" />
      <path id="axe" d="M -15 10 Q -5 -5 -40 -60 Q 0 -75 40 -60 Q 5 -5 15 10 z" class="outlined dull" transform="translate(-450,0)" />

      <g id="fascs">
         <use href="#fasc" transform="translate(0,-40)" />
         <use href="#fasc" transform="translate(0,-20)" />
         <use href="#fasc" transform="translate(0,  0)" />
         <use href="#fasc" transform="translate(0, 20)" />
         <use href="#fasc" transform="translate(0, 40)" />
      </g>

      <use href="#one"   transform="translate(-350,0)" />
      <use href="#zero"  transform="translate(-250,0)" />
      <use href="#cross" transform="translate(-150,0)" />
      <use href="#cross" transform="translate( -50,0)" />
      <use href="#cross" transform="translate(  50,0)" />
      <use href="#cross" transform="translate( 150,0)" />
      <use href="#cross" transform="translate( 250,0)" />
      <use href="#cross" transform="translate( 350,0)" />
   </g>

   <g>
      <g id="five" transform="translate(-420 -275)">
         <polygon points="30,0 -90,-220 -150,-220 -30,0 " class="outlined bright" />
         <polygon points="-30,0 30,0 150,-220 90,-220 "   class="outlined bright" />
      </g>

      <g id="three" transform="translate(420 -275)">
         <polygon class="outlined bright" points=" -90,0 -90,-220 -150,-220 -150,0 " />
         <polygon class="outlined bright" points="  30,0  30,-220  -30,-220  -30,0 " />
         <polygon class="outlined bright" points=" 150,0 150,-220   90,-220   90,0 " />
      </g>

      <use href="#foot" transform="translate(-105 220)" />
      <use href="#foot" transform="translate(+105 220)" />
   </g>
</svg>
